<mxfile host="app.diagrams.net" modified="2023-04-24T14:29:01.170Z" agent="Mozilla/5.0 (X11; Linux x86_64) AppleWebKit/537.36 (KHTML, like Gecko) Chrome/111.0.0.0 Safari/537.36" version="21.2.1" etag="j-c55wbQgTxReGRPP3YW" type="github">
  <diagram name="Page-1" id="bVJrQcf4wQjg3Vdnviuq">
    <mxGraphModel>
      <root>
        <mxCell id="0" />
        <mxCell id="1" parent="0" />
      </root>
    </mxGraphModel>
  </diagram>
</mxfile>
